name ./resultDataOpenSim/trcMotMarkerGrf/sub06/grf-03-01.mot
datacolumns 19
datarows 12
range 1.48800000 1.53200000
endheader

                time	     ground_force_vx	     ground_force_vy	     ground_force_vz	     ground_force_px	     ground_force_py	     ground_force_pz	   l_ground_force_vx	   l_ground_force_vy	   l_ground_force_vz	   l_ground_force_px	   l_ground_force_py	   l_ground_force_pz	     ground_torque_x	     ground_torque_y	     ground_torque_z	   l_ground_torque_x	   l_ground_torque_y	   l_ground_torque_z	
          1.48800000	         88.16367688	        654.36843176	        -21.51704625	          0.87630948	          0.00000000	          0.11166684	          0.00000000	          0.00000000	          0.00000000	          0.00000000	          0.00000000	          0.00000000	          0.00000000	          3.84270417	          0.00000000	          0.00000000	          0.00000000	          0.00000000	
          1.49200000	         92.72241150	        668.39709574	        -22.11164896	          0.87795991	          0.00000000	          0.11136995	          0.00000000	          0.00000000	          0.00000000	          0.00000000	          0.00000000	          0.00000000	          0.00000000	          3.92139236	          0.00000000	          0.00000000	          0.00000000	          0.00000000	
          1.49600000	         97.32478022	        682.43108383	        -22.82834347	          0.87950510	          0.00000000	          0.11103173	          0.00000000	          0.00000000	          0.00000000	          0.00000000	          0.00000000	          0.00000000	          0.00000000	          4.00973303	          0.00000000	          0.00000000	          0.00000000	          0.00000000	
          1.50000000	        101.86879829	        696.37814967	        -23.50179461	          0.88095615	          0.00000000	          0.11065279	          0.00000000	          0.00000000	          0.00000000	          0.00000000	          0.00000000	          0.00000000	          0.00000000	          4.11202390	          0.00000000	          0.00000000	          0.00000000	          0.00000000	
          1.50400000	        106.34580063	        710.13437577	        -23.96806441	          0.88231013	          0.00000000	          0.11023478	          0.00000000	          0.00000000	          0.00000000	          0.00000000	          0.00000000	          0.00000000	          0.00000000	          4.22852854	          0.00000000	          0.00000000	          0.00000000	          0.00000000	
          1.50800000	        110.83659060	        723.57602607	        -24.09868929	          0.88357315	          0.00000000	          0.10978771	          0.00000000	          0.00000000	          0.00000000	          0.00000000	          0.00000000	          0.00000000	          0.00000000	          4.35567965	          0.00000000	          0.00000000	          0.00000000	          0.00000000	
          1.51200000	        115.47861229	        736.55744888	        -23.81942316	          0.88474085	          0.00000000	          0.10932354	          0.00000000	          0.00000000	          0.00000000	          0.00000000	          0.00000000	          0.00000000	          0.00000000	          4.48758343	          0.00000000	          0.00000000	          0.00000000	          0.00000000	
          1.51600000	        120.41589727	        748.91870997	        -23.11845457	          0.88579930	          0.00000000	          0.10885591	          0.00000000	          0.00000000	          0.00000000	          0.00000000	          0.00000000	          0.00000000	          0.00000000	          4.61829379	          0.00000000	          0.00000000	          0.00000000	          0.00000000	
          1.52000000	        125.75053492	        760.49195410	        -22.05036921	          0.88673657	          0.00000000	          0.10839960	          0.00000000	          0.00000000	          0.00000000	          0.00000000	          0.00000000	          0.00000000	          0.00000000	          4.74409820	          0.00000000	          0.00000000	          0.00000000	          0.00000000	
          1.52400000	        131.50650421	        771.10342551	        -20.73031598	          0.88754781	          0.00000000	          0.10796459	          0.00000000	          0.00000000	          0.00000000	          0.00000000	          0.00000000	          0.00000000	          0.00000000	          4.86509311	          0.00000000	          0.00000000	          0.00000000	          0.00000000	
          1.52800000	        137.61468297	        780.57227358	        -19.31494871	          0.88824364	          0.00000000	          0.10755441	          0.00000000	          0.00000000	          0.00000000	          0.00000000	          0.00000000	          0.00000000	          0.00000000	          4.98549518	          0.00000000	          0.00000000	          0.00000000	          0.00000000	
          1.53200000	        143.93192685	        788.71510618	        -17.97374769	          0.88885962	          0.00000000	          0.10717031	          0.00000000	          0.00000000	          0.00000000	          0.00000000	          0.00000000	          0.00000000	          0.00000000	          5.11236776	          0.00000000	          0.00000000	          0.00000000	          0.00000000	
